<svg width="35" height="36" viewBox="0 0 35 36" fill="none" xmlns="http://www.w3.org/2000/svg">
<path fill-rule="evenodd" clip-rule="evenodd" d="M19.3133 35.0214H15.7282C14.7935 35.0214 14.0046 34.352 13.8524 33.4299L13.2503 29.7795C12.8428 29.6333 12.4405 29.4665 12.0472 29.279L9.03801 31.4352C8.29989 31.9641 7.22843 31.8748 6.58688 31.2359L4.05194 28.7007C3.38994 28.0377 3.30637 27.0067 3.85213 26.2474L6.00837 23.2411C5.82084 22.8465 5.65353 22.4442 5.50788 22.0357L1.85809 21.4346C0.934416 21.281 0.265137 20.4907 0.265137 19.5586V15.9752C0.265137 15.0383 0.935093 14.2487 1.85809 14.0977L5.50739 13.4964C5.65279 13.0895 5.8201 12.6873 6.00716 12.2934L3.85067 9.28566C3.3071 8.52443 3.39111 7.4934 4.05072 6.83305L6.58492 4.2991C7.22622 3.65706 8.30015 3.56825 9.03845 4.09809L12.046 6.25432C12.4398 6.06679 12.8428 5.89996 13.2499 5.75456L13.8517 2.10286C14.0034 1.18109 14.7923 0.511627 15.7275 0.511627H19.3118C20.2466 0.511627 21.035 1.18109 21.1881 2.10286L21.7892 5.75456C22.1972 5.89996 22.5988 6.06679 22.9938 6.25432L26.0016 4.09809C26.7408 3.56823 27.815 3.65707 28.4558 4.29982L30.9886 6.83211C31.6492 7.49221 31.7337 8.52324 31.1891 9.28398L29.0314 12.2939C29.2199 12.6892 29.3872 13.0914 29.5317 13.4969L33.1826 14.0989C34.1056 14.2487 34.7768 15.0371 34.7768 15.9735V19.5571C34.7768 20.4945 34.1049 21.2834 33.1824 21.4333L29.5326 22.0361C29.3879 22.4422 29.2211 22.8447 29.0321 23.2398L31.1905 26.2478C31.7358 27.0085 31.6503 28.0391 30.99 28.7004L28.4558 31.2332C28.0968 31.5928 27.6183 31.7909 27.1091 31.7909C26.7107 31.7909 26.3279 31.6684 26.0027 31.4359L22.9933 29.2781C22.5994 29.4662 22.1979 29.6332 21.791 29.7786L21.1882 33.4296C21.0366 34.3519 20.2477 35.0213 19.3131 35.0213L19.3133 35.0214ZM17.5207 25.0537C13.5029 25.0537 10.2351 21.7841 10.2351 17.7675C10.2351 13.7501 13.5028 10.4818 17.5207 10.4818C21.5386 10.4818 24.807 13.7502 24.807 17.7675C24.807 21.7841 21.5388 25.0537 17.5207 25.0537ZM17.5203 13.2982C15.0566 13.2982 13.052 15.3025 13.052 17.7655C13.052 20.2284 15.0568 22.2335 17.5203 22.2335C19.9844 22.2335 21.9888 20.2284 21.9888 17.7655C21.9883 15.3025 19.9845 13.2982 17.5203 13.2982Z" fill="#C7926F"/>
</svg>
